<svg width="278" height="81" viewBox="0 0 278 81" fill="none" xmlns="http://www.w3.org/2000/svg">
<path d="M0 0H277.619C266.963 13.6134 243.61 43.0185 235.447 51.7311C225.245 62.6218 211.641 81 178.992 81H0V0Z" fill="white"/>
<path d="M94.4593 36.432H95.3327C96.3015 36.432 96.7859 36.0157 96.7859 35.1676C96.7859 34.3194 96.3015 33.9031 95.3327 33.9031H94.4593V36.432ZM94.4593 41.9217H91.8214V31.7769H96.0194C97.1633 31.7769 98.0387 32.0725 98.6436 32.6639C99.2506 33.2553 99.5463 34.0898 99.5463 35.1676C99.5463 36.2433 99.2506 37.0779 98.6436 37.6712C98.0387 38.2626 97.1633 38.5582 96.0194 38.5582H94.4593V41.9217Z" fill="black"/>
<path d="M106.717 34.0101H103.581V35.7064H106.542V37.9396H103.581V39.6885H106.717V41.9217H100.943V31.7769H106.717V34.0101Z" fill="black"/>
<path d="M111.251 36.3114H111.749C112.274 36.3114 112.664 36.2044 112.948 35.9885C113.23 35.7725 113.364 35.4632 113.364 35.0606C113.364 34.6579 113.23 34.3466 112.948 34.1307C112.664 33.9167 112.276 33.8078 111.749 33.8078H111.251V36.3114ZM117.05 41.9217H113.767L111.249 38.0194V41.9217H108.611V31.7769H112.716C113.28 31.7769 113.778 31.8566 114.196 32.02C114.613 32.1951 114.963 32.4227 115.245 32.7048C115.513 32.9868 115.716 33.3234 115.864 33.7008C115.998 34.0782 116.066 34.4809 116.066 34.9127C116.066 35.6792 115.875 36.3133 115.513 36.7841C115.138 37.2685 114.586 37.5914 113.858 37.7665L117.05 41.9217Z" fill="black"/>
<path d="M122.015 34.0101V41.9217H119.379V34.0101H117.212V31.7769H124.182V34.0101H122.015Z" fill="black"/>
<path d="M130.399 38.1536L129.214 34.7765L128.032 38.1536H130.399ZM131.099 40.1592H127.331L126.726 41.9217H123.915L127.777 31.7769H130.656L134.519 41.9217H131.706L131.099 40.1592Z" fill="black"/>
<path d="M135.216 41.9217L136.939 31.7769H139.55L141.581 37.1848L143.6 31.7769H146.209L147.932 41.9217H145.308L144.433 36.0838L142.038 41.9217H140.989L138.713 36.0838L137.84 41.9217H135.216Z" fill="black"/>
<path d="M152.237 41.9217H149.599V31.7769H152.237V41.9217Z" fill="black"/>
<path d="M154.364 41.9217V31.7769H157.001L161.872 37.9805V31.7769H164.497V41.9217H161.872L157.001 35.72V41.9217H154.364Z" fill="black"/>
<path d="M172.167 38.1536L170.982 34.7765L169.798 38.1536H172.167ZM172.867 40.1592H169.099L168.494 41.9217H165.681L169.543 31.7769H172.422L176.285 41.9217H173.472L172.867 40.1592Z" fill="black"/>
<path d="M92.7454 48.596L95.4747 45.8025H96.8772L93.72 48.9675L96.8948 52.8018H95.4844L92.9691 49.6912L92.7454 49.9052V52.8018H91.6871V45.8025H92.7454V48.596Z" fill="#FC0100"/>
<path d="M97.9453 52.8018H99.0036V45.8025H97.9453V52.8018Z" fill="#FC0100"/>
<path d="M101.848 45.8005V51.8077H103.908V52.7998H100.789V45.8005H101.848Z" fill="#FC0100"/>
<path d="M109.516 51.1015H106.518L105.738 52.8017H104.608L108.071 45.3667L111.413 52.8017H110.253L109.516 51.1015ZM109.088 50.1094L108.047 47.7322L106.962 50.1094H109.088Z" fill="#FC0100"/>
<path d="M112.385 52.8018V45.3279L117.492 50.6658V45.8025H118.552V53.2278L113.444 47.8996V52.8018H112.385Z" fill="#FC0100"/>
<path d="M124.005 49.1525H126.901V49.384C126.901 49.9131 126.837 50.3781 126.717 50.7866C126.596 51.1581 126.392 51.5102 126.104 51.8351C125.454 52.5665 124.627 52.9303 123.624 52.9303C122.641 52.9303 121.805 52.5782 121.108 51.8721C120.412 51.1581 120.06 50.3139 120.06 49.3198C120.06 48.2985 120.414 47.4348 121.118 46.7306C121.834 46.0147 122.698 45.6626 123.717 45.6626C124.264 45.6626 124.775 45.7735 125.248 46.005C125.703 46.2287 126.149 46.5905 126.584 47.0924L125.833 47.8063C125.258 47.0457 124.561 46.6644 123.734 46.6644C122.991 46.6644 122.371 46.9154 121.869 47.4251C121.367 47.927 121.118 48.5572 121.118 49.3179C121.118 50.0882 121.396 50.7302 121.954 51.2398C122.484 51.7125 123.05 51.946 123.653 51.946C124.172 51.946 124.637 51.769 125.055 51.4169C125.472 51.0648 125.705 50.6368 125.75 50.1446H124.005V49.1525Z" fill="#FC0100"/>
<path d="M132.251 49.9596V52.7998H131.193V45.8005H132.391C132.975 45.8005 133.42 45.8375 133.718 45.9211C134.025 46.0048 134.284 46.1546 134.517 46.3841C134.916 46.7849 135.12 47.2751 135.12 47.8704C135.12 48.5123 134.906 49.022 134.478 49.3916C134.05 49.7709 133.477 49.9577 132.743 49.9577H132.251V49.9596ZM132.251 48.9772H132.65C133.615 48.9772 134.097 48.6057 134.097 47.8626C134.097 47.1389 133.597 46.7771 132.603 46.7771H132.251V48.9772Z" fill="#FC0100"/>
<path d="M140.176 46.7946H137.371V48.4754H140.102V49.4694H137.371V51.8077H140.176V52.8018H136.315V45.8025H140.176V46.7946Z" fill="#FC0100"/>
<path d="M144.045 49.8215L146.209 52.7998H144.919L142.923 49.9324H142.728V52.7998H141.672V45.8005H142.915C143.833 45.8005 144.503 45.9776 144.911 46.3199C145.366 46.709 145.6 47.2206 145.6 47.8529C145.6 48.345 145.46 48.771 145.172 49.1348C144.882 49.4947 144.51 49.7184 144.045 49.8215ZM142.726 49.0142H143.063C144.065 49.0142 144.565 48.6329 144.565 47.8723C144.565 47.1564 144.082 46.7946 143.108 46.7946H142.726V49.0142Z" fill="#FC0100"/>
<path d="M149.214 46.7946V52.8018H148.166V46.7946H146.551V45.8025H150.821V46.7946H149.214Z" fill="#FC0100"/>
<path d="M155.601 51.1015H152.603L151.823 52.8017H150.691L154.153 45.3667L157.495 52.8017H156.336L155.601 51.1015ZM155.175 50.1094L154.134 47.7322L153.048 50.1094H155.175Z" fill="#FC0100"/>
<path d="M158.231 52.8018L159.705 45.2734L162.102 50.7126L164.598 45.2734L165.917 52.8018H164.829L164.162 48.5785L162.083 53.1248L160.077 48.5688L159.326 52.8018H158.231Z" fill="#FC0100"/>
<path d="M167.504 52.8018H168.562V45.8025H167.504V52.8018Z" fill="#FC0100"/>
<path d="M170.35 52.8018V45.3279L175.455 50.6658V45.8025H176.513V53.2278L171.408 47.8996V52.8018H170.35Z" fill="#FC0100"/>
<path d="M182.46 51.1015H179.462L178.682 52.8017H177.552L181.014 45.3667L184.356 52.8017H183.197L182.46 51.1015ZM182.034 50.1094L180.995 47.7322L179.907 50.1094H182.034Z" fill="#FC0100"/>
<path d="M91.6852 62.2793H92.7454V55.282H91.6852V62.2793Z" fill="#FC0100"/>
<path d="M94.5312 62.2793V54.8074L99.6377 60.1453V55.2801H100.696V62.7073L95.5895 57.3791V62.2793H94.5312Z" fill="#FC0100"/>
<path d="M104.408 56.2741V62.2812H103.357V56.2741H101.743V55.282H106.013V56.2741H104.408Z" fill="#FC0100"/>
<path d="M110.922 56.2741H108.119V57.9549H110.849V58.9489H108.119V61.2872H110.922V62.2812H107.061V55.282H110.922V56.2741Z" fill="#FC0100"/>
<path d="M114.794 59.301L116.957 62.2793H115.665L113.669 59.4119H113.475V62.2793H112.417V55.282H113.66C114.58 55.282 115.247 55.4571 115.655 55.8014C116.111 56.1905 116.344 56.7001 116.344 57.3324C116.344 57.8226 116.204 58.2505 115.916 58.6124C115.63 58.9742 115.257 59.1979 114.794 59.301ZM113.477 58.4918H113.809C114.813 58.4918 115.313 58.1105 115.313 57.3499C115.313 56.6359 114.829 56.2741 113.854 56.2741H113.475V58.4918H113.477Z" fill="#FC0100"/>
<path d="M118.114 62.2793V54.8074L123.219 60.1453V55.2801H124.277V62.7073L119.173 57.3791V62.2793H118.114Z" fill="#FC0100"/>
<path d="M130.224 60.5812H127.226L126.446 62.2795H125.316L128.779 54.8445L132.121 62.2795H130.961L130.224 60.5812ZM129.798 59.5891L128.757 57.2119L127.672 59.5891H129.798Z" fill="#FC0100"/>
<path d="M137.058 56.321L136.196 56.8326C136.039 56.5544 135.879 56.3676 135.741 56.284C135.593 56.1906 135.397 56.1439 135.155 56.1439C134.869 56.1439 134.617 56.2276 134.422 56.3949C134.227 56.5524 134.134 56.7567 134.134 57.0077C134.134 57.352 134.385 57.6204 134.897 57.8344L135.593 58.1223C136.159 58.3538 136.577 58.6339 136.846 58.9569C137.105 59.2895 137.235 59.7 137.235 60.1727C137.235 60.8146 137.021 61.3516 136.593 61.7698C136.157 62.1978 135.618 62.4118 134.978 62.4118C134.375 62.4118 133.873 62.2347 133.475 61.8729C133.086 61.5111 132.844 60.9995 132.751 60.3497L133.819 60.1182C133.866 60.5267 133.949 60.8049 134.07 60.9625C134.284 61.2699 134.609 61.4177 135.025 61.4177C135.35 61.4177 135.63 61.3068 135.842 61.0928C136.056 60.8691 136.167 60.5929 136.167 60.2486C136.167 60.1085 136.149 59.9898 136.111 59.877C136.076 59.7661 136.019 59.663 135.934 59.5619C135.85 59.4685 135.749 59.3771 135.628 59.2915C135.498 59.2078 135.348 59.1358 135.173 59.06L134.496 58.7818C133.539 58.3733 133.056 57.778 133.056 56.9999C133.056 56.4707 133.261 56.035 133.659 55.6809C134.06 55.3191 134.56 55.1421 135.163 55.1421C135.972 55.1421 136.605 55.5312 137.058 56.321Z" fill="#FC0100"/>
<path d="M138.616 62.2793H139.672V55.282H138.616V62.2793Z" fill="#FC0100"/>
<path d="M141.116 58.7526C141.116 57.7586 141.478 56.9143 142.192 56.2082C142.917 55.502 143.779 55.1499 144.791 55.1499C145.785 55.1499 146.639 55.504 147.354 56.2179C148.068 56.9338 148.43 57.7878 148.43 58.7896C148.43 59.8012 148.068 60.6552 147.354 61.3516C146.631 62.0558 145.757 62.4098 144.736 62.4098C143.835 62.4098 143.018 62.0947 142.302 61.4722C141.517 60.7758 141.116 59.877 141.116 58.7526ZM142.174 58.7624C142.174 59.5327 142.435 60.1727 142.954 60.6746C143.474 61.1648 144.069 61.4177 144.746 61.4177C145.479 61.4177 146.102 61.1668 146.611 60.6571C147.113 60.1455 147.362 59.5152 147.362 58.7799C147.362 58.029 147.111 57.4065 146.621 56.9065C146.119 56.3949 145.506 56.144 144.773 56.144C144.049 56.144 143.437 56.3949 142.935 56.9065C142.425 57.4065 142.174 58.029 142.174 58.7624Z" fill="#FC0100"/>
<path d="M149.862 62.2793V54.8074L154.968 60.1453V55.2801H156.027V62.7073L150.92 57.3791V62.2793H149.862Z" fill="#FC0100"/>
<path d="M161.974 60.5812H158.976L158.196 62.2795H157.064L160.526 54.8445L163.868 62.2795H162.709L161.974 60.5812ZM161.546 59.5891L160.507 57.2119L159.419 59.5891H161.546Z" fill="#FC0100"/>
<path d="M165.903 55.2803V61.2874H167.963V62.2795H164.845V55.2803H165.903Z" fill="#FC0100"/>
<path d="M62.663 42.8982H73.7299C75.0741 42.8982 76.2685 42.1648 76.9669 41.1319L83.2639 31.8313H72.1989C70.8547 31.8313 69.6603 32.5647 68.9619 33.5977L62.663 42.8982Z" fill="#89BD24"/>
<path d="M62.663 18H73.7299C75.0741 18 76.2685 18.7334 76.9669 19.7664L83.2639 29.0669H72.1989C70.8547 29.0669 69.6603 28.3335 68.9619 27.3006L62.663 18Z" fill="#FC0100"/>
<path d="M40 50.7281H51.0669C52.4111 50.7281 53.6153 50.0025 54.3039 48.9618L65.6646 31.8313H54.5977C53.2535 31.8313 52.0493 32.5588 51.3607 33.5977L40 50.7281Z" fill="#1F54A2"/>
</svg>
